<svg xmlns="http://www.w3.org/2000/svg" width="1100" height="644"><rect width="100%" height="100%" fill="white"/><text x="10" y="25" font-size="20" font-weight="bold">Benchmark V2 LegalPass por configuración única</text><text x="10" y="73" font-size="16">C12</text><rect x="210" y="60" width="700.0" height="22" fill="#245b8a"/><line x1="784.0" x2="1060.4" y1="71" y2="71" stroke="#111" stroke-width="3"/><text x="920" y="76" font-size="15">9.0% [7.4, 10.9]</text><text x="10" y="107" font-size="16">C08</text><rect x="210" y="94" width="692.2" height="22" fill="#245b8a"/><line x1="776.9" x2="1052.0" y1="105" y2="105" stroke="#111" stroke-width="3"/><text x="920" y="110" font-size="15">8.9% [7.3, 10.8]</text><text x="10" y="141" font-size="16">C05</text><rect x="210" y="128" width="676.7" height="22" fill="#245b8a"/><line x1="762.8" x2="1035.1" y1="139" y2="139" stroke="#111" stroke-width="3"/><text x="920" y="144" font-size="15">8.7% [7.1, 10.6]</text><text x="10" y="175" font-size="16">C13</text><rect x="210" y="162" width="661.1" height="22" fill="#245b8a"/><line x1="748.7" x2="1018.2" y1="173" y2="173" stroke="#111" stroke-width="3"/><text x="920" y="178" font-size="15">8.5% [6.9, 10.4]</text><text x="10" y="209" font-size="16">C18</text><rect x="210" y="196" width="645.6" height="22" fill="#245b8a"/><line x1="734.7" x2="1001.3" y1="207" y2="207" stroke="#111" stroke-width="3"/><text x="920" y="212" font-size="15">8.3% [6.7, 10.2]</text><text x="10" y="243" font-size="16">C07</text><rect x="210" y="230" width="645.6" height="22" fill="#245b8a"/><line x1="734.7" x2="1001.3" y1="241" y2="241" stroke="#111" stroke-width="3"/><text x="920" y="246" font-size="15">8.3% [6.7, 10.2]</text><text x="10" y="277" font-size="16">C19</text><rect x="210" y="264" width="622.2" height="22" fill="#245b8a"/><line x1="713.6" x2="975.9" y1="275" y2="275" stroke="#111" stroke-width="3"/><text x="920" y="280" font-size="15">8.0% [6.5, 9.8]</text><text x="10" y="311" font-size="16">C06</text><rect x="210" y="298" width="598.9" height="22" fill="#245b8a"/><line x1="692.6" x2="950.4" y1="309" y2="309" stroke="#111" stroke-width="3"/><text x="920" y="314" font-size="15">7.7% [6.2, 9.5]</text><text x="10" y="345" font-size="16">C17</text><rect x="210" y="332" width="591.1" height="22" fill="#245b8a"/><line x1="685.6" x2="941.9" y1="343" y2="343" stroke="#111" stroke-width="3"/><text x="920" y="348" font-size="15">7.6% [6.1, 9.4]</text><text x="10" y="379" font-size="16">C04</text><rect x="210" y="366" width="544.4" height="22" fill="#245b8a"/><line x1="643.8" x2="890.7" y1="377" y2="377" stroke="#111" stroke-width="3"/><text x="920" y="382" font-size="15">7.0% [5.6, 8.8]</text><text x="10" y="413" font-size="16">C11</text><rect x="210" y="400" width="536.7" height="22" fill="#245b8a"/><line x1="636.9" x2="882.1" y1="411" y2="411" stroke="#111" stroke-width="3"/><text x="920" y="416" font-size="15">6.9% [5.5, 8.6]</text><text x="10" y="447" font-size="16">C15</text><rect x="210" y="434" width="521.1" height="22" fill="#245b8a"/><line x1="623.0" x2="865.0" y1="445" y2="445" stroke="#111" stroke-width="3"/><text x="920" y="450" font-size="15">6.7% [5.3, 8.4]</text><text x="10" y="481" font-size="16">C10</text><rect x="210" y="468" width="521.1" height="22" fill="#245b8a"/><line x1="623.0" x2="865.0" y1="479" y2="479" stroke="#111" stroke-width="3"/><text x="920" y="484" font-size="15">6.7% [5.3, 8.4]</text><text x="10" y="515" font-size="16">C02</text><rect x="210" y="502" width="482.2" height="22" fill="#245b8a"/><line x1="588.5" x2="822.0" y1="513" y2="513" stroke="#111" stroke-width="3"/><text x="920" y="518" font-size="15">6.2% [4.9, 7.9]</text><text x="10" y="549" font-size="16">C16</text><rect x="210" y="536" width="474.4" height="22" fill="#245b8a"/><line x1="581.6" x2="813.4" y1="547" y2="547" stroke="#111" stroke-width="3"/><text x="920" y="552" font-size="15">6.1% [4.8, 7.8]</text><text x="10" y="583" font-size="16">C03</text><rect x="210" y="570" width="458.9" height="22" fill="#245b8a"/><line x1="567.9" x2="796.1" y1="581" y2="581" stroke="#111" stroke-width="3"/><text x="920" y="586" font-size="15">5.9% [4.6, 7.5]</text></svg>